<svg width="120" height="32" viewBox="0 0 120 32" fill="none" xmlns="http://www.w3.org/2000/svg">
<g clip-path="url(#clip0_10017_1171)">
<mask id="mask0_10017_1171" style="mask-type:luminance" maskUnits="userSpaceOnUse" x="0" y="0" width="120" height="32">
<path d="M120 0.831055H0V31.9999H120V0.831055Z" fill="white"/>
</mask>
<g mask="url(#mask0_10017_1171)">
<mask id="mask1_10017_1171" style="mask-type:luminance" maskUnits="userSpaceOnUse" x="-2" y="-3" width="24" height="38">
<path d="M21.8183 -2.28564H-1.55835V34.3377H21.8183V-2.28564Z" fill="white"/>
</mask>
<g mask="url(#mask1_10017_1171)">
<path d="M19.6501 4.80702C19.3974 4.42003 19.0282 4.40892 18.6075 4.39625C18.5598 4.39481 18.5115 4.39337 18.4626 4.39134C18.4254 4.38963 18.3843 4.39029 18.3414 4.39097C18.1707 4.39372 17.9712 4.39692 17.8707 4.25357C17.7541 4.08736 17.7652 3.76617 17.7743 3.50102C17.7772 3.41723 17.7798 3.33898 17.7782 3.27305C17.7619 2.6571 17.7277 2.00279 17.4899 1.78406C17.3106 1.61994 16.7742 1.64268 16.2796 1.66365C16.1192 1.67045 15.9632 1.67705 15.8252 1.67705H5.29563C5.08363 1.67705 4.8614 1.65979 4.64304 1.64283C4.21757 1.60978 3.80683 1.57787 3.51514 1.67705C3.09183 1.8217 3.06316 2.58178 3.03618 3.29751L3.03472 3.33602C3.01206 3.92688 2.86563 4.38281 2.38032 4.3369C1.81589 4.28434 1.25423 4.26777 0.999029 4.77862C0.697626 5.38304 0.759787 6.01574 0.871127 7.149C0.887031 7.31088 0.90394 7.48297 0.920935 7.66666H19.8129C19.8237 7.5324 19.8352 7.39986 19.8465 7.26947C19.935 6.24988 20.012 5.36154 19.6501 4.80702Z" fill="#8D8686"/>
<path fill-rule="evenodd" clip-rule="evenodd" d="M2.39214 8.79089C2.68719 12.7842 2.97902 16.7821 3.27086 20.7802L3.27104 20.7826C3.4295 22.9533 3.58796 25.1242 3.74693 27.2942H4.34973C4.3908 27.6339 4.43781 28.0533 4.48736 28.4954C4.58795 29.3929 4.69907 30.3845 4.7925 30.9937H4.85917C5.47317 30.7691 9.71784 28.9548 9.71971 21.7315C9.71893 21.7109 9.71963 21.6903 9.72173 21.6699H8.67306C8.62233 21.6694 8.57309 21.6524 8.53303 21.6216C8.49298 21.5909 8.46423 21.5479 8.45129 21.4993C8.34906 21.2469 8.2667 20.987 8.20483 20.7221C7.58789 21.0706 7.09799 21.6026 6.80493 22.2425C6.52673 21.5871 6.49032 20.8561 6.70205 20.1769C6.91378 19.4977 7.3602 18.9138 7.96327 18.527C7.97106 16.4192 8.76025 14.3873 10.1814 12.8161L10.2036 12.7966C10.2449 12.7609 10.2978 12.741 10.3527 12.7405C10.3844 12.7408 10.4157 12.7476 10.4446 12.7605C10.4739 12.7735 10.5001 12.7924 10.5215 12.8161C11.9593 14.3895 12.7443 16.4408 12.7199 18.5611C13.3343 18.9371 13.7898 19.5206 14.0019 20.2035C14.214 20.8863 14.1683 21.622 13.8734 22.2741C13.5819 21.6333 13.0915 21.1007 12.4735 20.7538C12.4358 21.0106 12.3662 21.2618 12.2664 21.5018C12.232 21.6041 12.1629 21.6699 12.0939 21.6699H10.9756C10.9774 21.6821 10.9786 21.6944 10.9793 21.7068L10.9798 21.7096V21.7156C10.9802 21.7262 10.9802 21.7369 10.9798 21.7476C10.9951 29.1782 15.5081 30.8648 15.8885 30.9937H16.0186C16.0518 30.4085 16.16 29.6009 16.2654 28.8136C16.338 28.2711 16.4094 27.7381 16.454 27.2942H17.0638C17.259 24.5608 17.4597 21.835 17.6604 19.1091L17.6606 19.1076L17.6607 19.1069C17.9174 15.6202 18.1742 12.1334 18.4193 8.63037H2.43118C2.38516 8.63933 2.3883 8.71468 2.39214 8.79089ZM10.3527 12.7405H10.3515H10.3539H10.3527Z" fill="#8D8686"/>
</g>
<mask id="mask2_10017_1171" style="mask-type:luminance" maskUnits="userSpaceOnUse" x="19" y="7" width="48" height="18">
<path d="M66.2337 7.84424H19.4805V24.2079H66.2337V7.84424Z" fill="white"/>
</mask>
<g mask="url(#mask2_10017_1171)">
<path d="M22.0588 13.0635C22.0588 12.0778 22.3984 11.3138 23.0776 10.7717C23.7692 10.2172 24.8065 9.93994 26.1896 9.93994C27.1034 9.93994 27.8814 10.0262 28.5236 10.1987V12.7494C27.832 12.5399 27.1466 12.4351 26.4674 12.4351C25.8006 12.4351 25.3683 12.5152 25.1708 12.6754C24.9732 12.8233 24.8744 13.0451 24.8744 13.3408V19.551C24.8744 20.1425 25.3375 20.4382 26.2637 20.4382C27.2022 20.4382 27.974 20.3458 28.5791 20.161V22.6562C27.9123 22.8411 27.1034 22.9335 26.1526 22.9335C24.7694 22.9335 23.7383 22.6624 23.0591 22.1202C22.3923 21.578 22.0588 20.8141 22.0588 19.8283V13.0635Z" fill="#8D8686"/>
<path d="M33.9901 14.8196C33.9901 14.3514 33.7308 14.1173 33.2121 14.1173C32.6934 14.1173 32.4341 14.3514 32.4341 14.8196V19.9579C32.4341 20.4261 32.6934 20.6602 33.2121 20.6602C33.7308 20.6602 33.9901 20.4261 33.9901 19.9579V14.8196ZM29.6926 14.7272C29.6926 13.7908 29.9828 13.0638 30.5632 12.5463C31.156 12.0164 32.0389 11.7515 33.2121 11.7515C34.3853 11.7515 35.262 12.0164 35.8425 12.5463C36.4352 13.0638 36.7316 13.7908 36.7316 14.7272V20.0503C36.7316 20.9868 36.4352 21.72 35.8425 22.2498C35.262 22.7673 34.3853 23.0261 33.2121 23.0261C32.0389 23.0261 31.156 22.7673 30.5632 22.2498C29.9828 21.72 29.6926 20.9868 29.6926 20.0503V14.7272Z" fill="#8D8686"/>
<path d="M38.5319 11.8068C38.5319 9.7243 39.631 8.68311 41.8291 8.68311C42.1131 8.68311 42.4527 8.71396 42.8479 8.77552V10.9195C42.6503 10.8949 42.4651 10.8826 42.2922 10.8826C41.6624 10.8826 41.3476 11.1783 41.3476 11.7698V11.9361H42.8479V14.1171H41.3476V22.8411H38.5319V14.1171H37.4761V11.9361H38.5319V11.8068Z" fill="#8D8686"/>
<path d="M43.9948 11.8068C43.9948 9.7243 45.0938 8.68311 47.292 8.68311C47.576 8.68311 47.9156 8.71396 48.3108 8.77552V10.9195C48.1132 10.8949 47.9279 10.8826 47.7551 10.8826C47.1253 10.8826 46.8104 11.1783 46.8104 11.7698V11.9361H48.3108V14.1171H46.8104V22.8411H43.9948V14.1171H42.939V11.9361H43.9948V11.8068Z" fill="#8D8686"/>
<path d="M48.9578 19.7361V14.7272C48.9578 13.7908 49.2479 13.0638 49.8284 12.5463C50.4087 12.0164 51.2855 11.7515 52.4587 11.7515C54.7185 11.7515 55.8485 12.7434 55.8485 14.7272V18.4793H51.6437V19.5143C51.6437 19.884 51.7425 20.1489 51.9401 20.3091C52.15 20.4569 52.6007 20.5309 53.2923 20.5309C53.9961 20.5309 54.7618 20.4077 55.5892 20.1612V22.601C54.7248 22.8351 53.7986 22.9522 52.8106 22.9522C50.2421 22.9522 48.9578 21.8801 48.9578 19.7361ZM51.6437 16.3537H53.2737V14.7642C53.2737 14.2959 53.0021 14.0619 52.4587 14.0619C51.9154 14.0619 51.6437 14.2959 51.6437 14.7642V16.3537Z" fill="#8D8686"/>
<path d="M56.9534 19.7361V14.7272C56.9534 13.7908 57.2436 13.0638 57.824 12.5463C58.4044 12.0164 59.2811 11.7515 60.4543 11.7515C62.7142 11.7515 63.8441 12.7434 63.8441 14.7272V18.4793H59.6393V19.5143C59.6393 19.884 59.7381 20.1489 59.9357 20.3091C60.1456 20.4569 60.5963 20.5309 61.2879 20.5309C61.9917 20.5309 62.7574 20.4077 63.5848 20.1612V22.601C62.7204 22.8351 61.7942 22.9522 60.8062 22.9522C58.2377 22.9522 56.9534 21.8801 56.9534 19.7361ZM59.6393 16.3537H61.2693V14.7642C61.2693 14.2959 60.9977 14.0619 60.4543 14.0619C59.911 14.0619 59.6393 14.2959 59.6393 14.7642V16.3537Z" fill="#8D8686"/>
</g>
<mask id="mask3_10017_1171" style="mask-type:luminance" maskUnits="userSpaceOnUse" x="67" y="8" width="54" height="19">
<path d="M120 8.62354H67.0132V26.5457H120V8.62354Z" fill="white"/>
</mask>
<g mask="url(#mask3_10017_1171)">
<path d="M72.6278 13.084C72.6278 11.9466 72.0273 11.3779 70.8262 11.3779H68.9107V21.7473H70.8262C72.0273 21.7473 72.6278 21.166 72.6278 20.0033V13.084ZM67.5642 10.2026H70.902C71.9134 10.2026 72.6784 10.4617 73.1967 10.9798C73.7151 11.498 73.9742 12.1931 73.9742 13.0651V20.0412C73.9742 20.9385 73.7214 21.6462 73.2157 22.1644C72.71 22.6826 71.9514 22.9416 70.94 22.9416H67.5642V10.2026Z" fill="#8D8686"/>
<path d="M76.1902 20.1931V14.923C76.1902 14.0258 76.443 13.3117 76.9488 12.781C77.4671 12.2375 78.2448 11.9658 79.2812 11.9658C80.3183 11.9658 81.0828 12.2375 81.576 12.781C82.0817 13.3117 82.335 14.0258 82.335 14.923V18.2216H77.5177V20.1362C77.5177 20.7049 77.6947 21.1283 78.0485 21.4063C78.403 21.6844 78.9524 21.8234 79.6989 21.8234C80.4446 21.8234 81.216 21.7096 82.0124 21.4822V22.7333C81.3804 22.9355 80.6277 23.0366 79.7557 23.0366C77.3787 23.0366 76.1902 22.0888 76.1902 20.1931ZM77.5177 17.1031H81.0454V14.923C81.0454 13.7351 80.457 13.1411 79.2812 13.1411C78.1054 13.1411 77.5177 13.7351 77.5177 14.923V17.1031Z" fill="#8D8686"/>
<path d="M84.6399 9.29297H85.9864V22.9419H84.6399V9.29297Z" fill="#8D8686"/>
<path d="M89.267 10.9418C88.7231 10.9418 88.4512 10.6511 88.4512 10.0698C88.4512 9.4884 88.7231 9.19775 89.267 9.19775C89.8234 9.19775 90.1016 9.4884 90.1016 10.0698C90.1016 10.6511 89.8234 10.9418 89.267 10.9418ZM88.6031 12.2309H89.9496V22.9414H88.6031V12.2309Z" fill="#8D8686"/>
<path d="M96.8899 12.1553H98.2559L95.866 22.9417H93.9694L91.5803 12.1553H92.9642L94.0076 17.103L94.9372 21.9939C95.3159 19.8961 95.9673 16.6165 96.8899 12.1553Z" fill="#8D8686"/>
<path d="M99.6921 20.1931V14.923C99.6921 14.0258 99.9454 13.3117 100.451 12.781C100.969 12.2375 101.747 11.9658 102.783 11.9658C103.82 11.9658 104.585 12.2375 105.078 12.781C105.584 13.3117 105.837 14.0258 105.837 14.923V18.2216H101.02V20.1362C101.02 20.7049 101.197 21.1283 101.551 21.4063C101.904 21.6844 102.454 21.8234 103.201 21.8234C103.947 21.8234 104.718 21.7096 105.514 21.4822V22.7333C104.883 22.9355 104.13 23.0366 103.258 23.0366C100.88 23.0366 99.6921 22.0888 99.6921 20.1931ZM101.02 17.1031H104.547V14.923C104.547 13.7351 103.959 13.1411 102.783 13.1411C101.607 13.1411 101.02 13.7351 101.02 14.923V17.1031Z" fill="#8D8686"/>
<path d="M111.631 12.0986H112.105V13.3877H111.461C111.006 13.3877 110.594 13.5077 110.228 13.7479C110.114 13.8237 109.867 13.9942 109.489 14.2596V22.9419H108.142V12.1554H109.432V12.9706C109.469 12.9453 109.564 12.8758 109.716 12.7621C109.881 12.6484 109.975 12.5852 110.001 12.5726C110.039 12.5472 110.121 12.4967 110.247 12.4208C110.386 12.345 110.488 12.3008 110.551 12.2881C110.626 12.2629 110.728 12.2313 110.854 12.1934C111.043 12.1302 111.303 12.0986 111.631 12.0986Z" fill="#8D8686"/>
<path d="M117.875 12.1553H119.221L116.262 25.7663H114.973L115.561 22.9417H114.897L112.545 12.1553H113.911L115.049 17.5201L115.884 21.9939C116.136 20.5026 116.414 19.0113 116.717 17.5201L117.875 12.1553Z" fill="#8D8686"/>
</g>
</g>
</g>
<defs>
<clipPath id="clip0_10017_1171">
<rect width="120" height="31.1689" fill="white" transform="translate(0 0.831055)"/>
</clipPath>
</defs>
</svg>
