<svg width="124" height="32" viewBox="0 0 124 32" fill="none" xmlns="http://www.w3.org/2000/svg">
<mask id="mask0_10017_913" style="mask-type:luminance" maskUnits="userSpaceOnUse" x="0" y="0" width="124" height="32">
<path d="M124 0H0V32H124V0Z" fill="white"/>
</mask>
<g mask="url(#mask0_10017_913)">
<mask id="mask1_10017_913" style="mask-type:luminance" maskUnits="userSpaceOnUse" x="-2" y="-4" width="25" height="39">
<path d="M22.5455 -3.19995H-1.61035V34.4H22.5455V-3.19995Z" fill="white"/>
</mask>
<g mask="url(#mask1_10017_913)">
<path d="M20.305 4.08196C20.0439 3.68465 19.6624 3.67324 19.2276 3.66023C19.1784 3.65876 19.1284 3.65727 19.0779 3.65519C19.0395 3.65343 18.997 3.65411 18.9527 3.65482C18.7763 3.65763 18.5701 3.66092 18.4662 3.51375C18.3458 3.34311 18.3572 3.01335 18.3666 2.74113C18.3696 2.65511 18.3724 2.57478 18.3707 2.50709C18.3538 1.87471 18.3185 1.20295 18.0728 0.978385C17.8875 0.809897 17.3332 0.833241 16.8221 0.854769C16.6564 0.861745 16.4952 0.868529 16.3526 0.868529H5.47205C5.25298 0.868529 5.02334 0.850809 4.79771 0.833393C4.35806 0.799462 3.93362 0.766704 3.63221 0.868529C3.19479 1.01703 3.16517 1.79739 3.13728 2.5322L3.13578 2.57174C3.11236 3.17835 2.96105 3.64644 2.45957 3.5993C1.87632 3.54534 1.29594 3.52833 1.03223 4.0528C0.720783 4.67334 0.785015 5.32291 0.900067 6.48638C0.916501 6.65259 0.933974 6.82927 0.951535 7.01785H20.4732C20.4844 6.88001 20.4962 6.74394 20.508 6.61007C20.5994 5.5633 20.679 4.65127 20.305 4.08196Z" fill="#8047F8"/>
<path fill-rule="evenodd" clip-rule="evenodd" d="M2.47179 8.17176C2.77668 12.2716 3.07824 16.3761 3.37981 20.4807L3.38 20.4832C3.54373 22.7118 3.70748 24.9406 3.87175 27.1685H4.49464C4.53709 27.5172 4.58565 27.9478 4.63686 28.4017C4.7408 29.3231 4.85563 30.3411 4.95217 30.9666H5.02106C5.65553 30.736 10.0417 28.8733 10.0436 21.4574C10.0428 21.4363 10.0435 21.4151 10.0457 21.3942H8.96209C8.90967 21.3937 8.85878 21.3762 8.8174 21.3446C8.77601 21.313 8.7463 21.2689 8.73293 21.219C8.62729 20.9599 8.54218 20.6931 8.47825 20.4211C7.84075 20.7789 7.33452 21.3251 7.03168 21.982C6.74421 21.3092 6.70659 20.5586 6.92537 19.8614C7.14417 19.1641 7.60547 18.5646 8.22864 18.1674C8.23669 16.0034 9.05219 13.9174 10.5207 12.3043L10.5437 12.2842C10.5863 12.2476 10.641 12.2272 10.6977 12.2267C10.7305 12.227 10.7628 12.234 10.7927 12.2472C10.823 12.2606 10.85 12.28 10.8722 12.3043C12.3579 13.9197 13.1691 16.0257 13.1439 18.2025C13.7787 18.5885 14.2494 19.1876 14.4686 19.8886C14.6878 20.5897 14.6406 21.345 14.3358 22.0145C14.0346 21.3566 13.5279 20.8098 12.8892 20.4537C12.8502 20.7173 12.7783 20.9752 12.6752 21.2216C12.6397 21.3266 12.5683 21.3942 12.497 21.3942H11.3414C11.3432 21.4067 11.3445 21.4194 11.3452 21.4321L11.3457 21.435V21.4411C11.3461 21.452 11.3461 21.463 11.3457 21.4739C11.3616 29.1026 16.0249 30.8342 16.418 30.9666H16.5525C16.5868 30.3658 16.6986 29.5366 16.8075 28.7283C16.8826 28.1714 16.9563 27.6242 17.0024 27.1685H17.6325C17.8342 24.3622 18.0416 21.5637 18.249 18.7651L18.2492 18.7636L18.2493 18.7628C18.5146 15.1831 18.7799 11.6034 19.0332 8.00696H2.51214C2.46459 8.01616 2.46783 8.09352 2.47179 8.17176ZM10.6977 12.2267H10.6965H10.699H10.6977Z" fill="#8047F8"/>
</g>
<mask id="mask2_10017_913" style="mask-type:luminance" maskUnits="userSpaceOnUse" x="20" y="7" width="49" height="18">
<path d="M68.4416 7.20007H20.1299V24.0001H68.4416V7.20007Z" fill="white"/>
</mask>
<g mask="url(#mask2_10017_913)">
<path d="M22.7942 12.5587C22.7942 11.5467 23.1451 10.7623 23.8469 10.2057C24.5615 9.63645 25.6334 9.35181 27.0626 9.35181C28.0069 9.35181 28.8108 9.44037 29.4744 9.61749V12.2361C28.7598 12.0211 28.0515 11.9135 27.3497 11.9135C26.6607 11.9135 26.214 11.9957 26.0099 12.1602C25.8057 12.312 25.7036 12.5397 25.7036 12.8433V19.2192C25.7036 19.8264 26.1821 20.13 27.1392 20.13C28.109 20.13 28.9065 20.0352 29.5318 19.8454V22.4072C28.8427 22.5969 28.0069 22.6918 27.0244 22.6918C25.5951 22.6918 24.5296 22.4135 23.8278 21.8568C23.1387 21.3002 22.7942 20.5159 22.7942 19.5038V12.5587Z" fill="#403937"/>
<path d="M35.1231 14.3614C35.1231 13.8807 34.8551 13.6403 34.3192 13.6403C33.7832 13.6403 33.5152 13.8807 33.5152 14.3614V19.6367C33.5152 20.1174 33.7832 20.3577 34.3192 20.3577C34.8551 20.3577 35.1231 20.1174 35.1231 19.6367V14.3614ZM30.6824 14.2665C30.6824 13.3051 30.9822 12.5587 31.582 12.0274C32.1945 11.4834 33.1069 11.2114 34.3192 11.2114C35.5314 11.2114 36.4374 11.4834 37.0372 12.0274C37.6497 12.5587 37.9559 13.3051 37.9559 14.2665V19.7316C37.9559 20.693 37.6497 21.4457 37.0372 21.9897C36.4374 22.521 35.5314 22.7867 34.3192 22.7867C33.1069 22.7867 32.1945 22.521 31.582 21.9897C30.9822 21.4457 30.6824 20.693 30.6824 19.7316V14.2665Z" fill="#403937"/>
<path d="M39.8164 11.2684C39.8164 9.13036 40.9521 8.0614 43.2235 8.0614C43.517 8.0614 43.8679 8.09308 44.2763 8.15628V10.3575C44.0721 10.3322 43.8807 10.3196 43.702 10.3196C43.0512 10.3196 42.7259 10.6232 42.7259 11.2304V11.4012H44.2763V13.6403H42.7259V22.5969H39.8164V13.6403H38.7253V11.4012H39.8164V11.2684Z" fill="#403937"/>
<path d="M45.4614 11.2684C45.4614 9.13036 46.597 8.0614 48.8685 8.0614C49.162 8.0614 49.5129 8.09308 49.9212 8.15628V10.3575C49.7171 10.3322 49.5256 10.3196 49.347 10.3196C48.6962 10.3196 48.3708 10.6232 48.3708 11.2304V11.4012H49.9212V13.6403H48.3708V22.5969H45.4614V13.6403H44.3704V11.4012H45.4614V11.2684Z" fill="#403937"/>
<path d="M50.5898 19.4089V14.2665C50.5898 13.3051 50.8897 12.5587 51.4895 12.0274C52.0892 11.4834 52.9952 11.2114 54.2075 11.2114C56.5426 11.2114 57.7103 12.2298 57.7103 14.2665V18.1186H53.3653V19.1813C53.3653 19.5608 53.4674 19.8328 53.6716 19.9973C53.8885 20.149 54.3542 20.2249 55.0688 20.2249C55.7962 20.2249 56.5873 20.0985 57.4423 19.8454V22.3502C56.5491 22.5906 55.592 22.7108 54.5711 22.7108C51.917 22.7108 50.5898 21.6101 50.5898 19.4089ZM53.3653 15.9364H55.0497V14.3045C55.0497 13.8237 54.769 13.5834 54.2075 13.5834C53.646 13.5834 53.3653 13.8237 53.3653 14.3045V15.9364Z" fill="#403937"/>
<path d="M58.8518 19.4089V14.2665C58.8518 13.3051 59.1517 12.5587 59.7515 12.0274C60.3512 11.4834 61.2572 11.2114 62.4695 11.2114C64.8046 11.2114 65.9722 12.2298 65.9722 14.2665V18.1186H61.6272V19.1813C61.6272 19.5608 61.7293 19.8328 61.9335 19.9973C62.1504 20.149 62.6162 20.2249 63.3308 20.2249C64.0581 20.2249 64.8493 20.0985 65.7043 19.8454V22.3502C64.8111 22.5906 63.854 22.7108 62.8331 22.7108C60.1789 22.7108 58.8518 21.6101 58.8518 19.4089ZM61.6272 15.9364H63.3116V14.3045C63.3116 13.8237 63.0309 13.5834 62.4695 13.5834C61.908 13.5834 61.6272 13.8237 61.6272 14.3045V15.9364Z" fill="#403937"/>
</g>
<mask id="mask3_10017_913" style="mask-type:luminance" maskUnits="userSpaceOnUse" x="69" y="8" width="55" height="19">
<path d="M124 8H69.2468V26.4H124V8Z" fill="white"/>
</mask>
<g mask="url(#mask3_10017_913)">
<path d="M75.0486 12.5797C75.0486 11.4119 74.428 10.8281 73.1869 10.8281H71.2075V21.474H73.1869C74.428 21.474 75.0486 20.8771 75.0486 19.6835V12.5797ZM69.8162 9.62146H73.2652C74.3104 9.62146 75.1008 9.88738 75.6364 10.4194C76.172 10.9514 76.4399 11.665 76.4399 12.5603V19.7224C76.4399 20.6436 76.1786 21.3702 75.656 21.9022C75.1334 22.4342 74.3496 22.7001 73.3044 22.7001H69.8162V9.62146Z" fill="#403937"/>
<path d="M78.7297 19.878V14.4675C78.7297 13.5463 78.991 12.8132 79.5136 12.2683C80.0492 11.7104 80.8529 11.4314 81.9238 11.4314C82.9955 11.4314 83.7854 11.7104 84.2951 12.2683C84.8177 12.8132 85.0793 13.5463 85.0793 14.4675V17.854H80.1015V19.8196C80.1015 20.4035 80.2844 20.8382 80.65 21.1236C81.0163 21.4091 81.584 21.5518 82.3554 21.5518C83.1259 21.5518 83.9231 21.435 84.746 21.2015V22.486C84.093 22.6936 83.3152 22.7974 82.4141 22.7974C79.9578 22.7974 78.7297 21.8243 78.7297 19.878ZM80.1015 16.7056H83.7467V14.4675C83.7467 13.2479 83.1388 12.638 81.9238 12.638C80.7087 12.638 80.1015 13.2479 80.1015 14.4675V16.7056Z" fill="#403937"/>
<path d="M87.4612 8.68713H88.8526V22.7H87.4612V8.68713Z" fill="#403937"/>
<path d="M92.2425 10.3804C91.6804 10.3804 91.3994 10.0819 91.3994 9.48512C91.3994 8.88824 91.6804 8.58984 92.2425 8.58984C92.8174 8.58984 93.1048 8.88824 93.1048 9.48512C93.1048 10.0819 92.8174 10.3804 92.2425 10.3804ZM91.5564 11.7038H92.9478V22.7H91.5564V11.7038Z" fill="#403937"/>
<path d="M100.12 11.626H101.531L99.0616 22.7001H97.1018L94.6331 11.626H96.0631L97.1412 16.7057L98.1018 21.7269C98.4932 19.5732 99.1663 16.2061 100.12 11.626Z" fill="#403937"/>
<path d="M103.015 19.878V14.4675C103.015 13.5463 103.277 12.8132 103.799 12.2683C104.335 11.7104 105.138 11.4314 106.209 11.4314C107.281 11.4314 108.071 11.7104 108.581 12.2683C109.103 12.8132 109.365 13.5463 109.365 14.4675V17.854H104.387V19.8196C104.387 20.4035 104.57 20.8382 104.936 21.1236C105.301 21.4091 105.87 21.5518 106.641 21.5518C107.411 21.5518 108.209 21.435 109.032 21.2015V22.486C108.379 22.6936 107.601 22.7974 106.7 22.7974C104.243 22.7974 103.015 21.8243 103.015 19.878ZM104.387 16.7056H108.032V14.4675C108.032 13.2479 107.424 12.638 106.209 12.638C104.994 12.638 104.387 13.2479 104.387 14.4675V16.7056Z" fill="#403937"/>
<path d="M115.352 11.5676H115.842V12.8911H115.176C114.706 12.8911 114.281 13.0143 113.902 13.2608C113.785 13.3387 113.529 13.5138 113.138 13.7863V22.7H111.747V11.6259H113.079V12.4628C113.118 12.4369 113.216 12.3655 113.373 12.2487C113.543 12.132 113.64 12.0671 113.667 12.0542C113.706 12.0282 113.791 11.9763 113.921 11.8984C114.066 11.8206 114.17 11.7752 114.235 11.7622C114.314 11.7363 114.418 11.7039 114.549 11.6649C114.744 11.6 115.012 11.5676 115.352 11.5676Z" fill="#403937"/>
<path d="M121.804 11.626H123.195L120.138 25.6H118.805L119.413 22.7001H118.727L116.297 11.626H117.708L118.884 17.1338L119.746 21.7269C120.007 20.1959 120.295 18.6649 120.608 17.1338L121.804 11.626Z" fill="#403937"/>
</g>
</g>
</svg>
