<svg width="28" height="42" viewBox="0 0 28 42" fill="none" xmlns="http://www.w3.org/2000/svg">
<g clip-path="url(#clip0_1_5)">
<path d="M25.9462 6.10239C25.6255 5.60575 25.157 5.59149 24.6232 5.57523C24.5627 5.57339 24.5014 5.57153 24.4394 5.56893C24.3921 5.56673 24.34 5.56758 24.2855 5.56846C24.069 5.57198 23.8157 5.57609 23.6881 5.39212C23.5402 5.17883 23.5543 4.76663 23.5659 4.42635C23.5695 4.31882 23.5729 4.21841 23.5709 4.1338C23.5501 3.34332 23.5068 2.50363 23.205 2.22292C22.9775 2.01231 22.2969 2.04149 21.6691 2.0684C21.4656 2.07712 21.2677 2.0856 21.0926 2.0856H7.73103C7.46201 2.0856 7.18001 2.06345 6.90293 2.04168C6.36302 1.99927 5.8418 1.95832 5.47167 2.0856C4.9345 2.27123 4.89813 3.24667 4.86388 4.16519L4.86203 4.21461C4.83328 4.97288 4.64747 5.55799 4.03164 5.49906C3.31538 5.43161 2.60267 5.41035 2.27883 6.06594C1.89636 6.84161 1.97524 7.65358 2.11653 9.10792C2.13671 9.31567 2.15816 9.53652 2.17973 9.77225H26.1528C26.1665 9.59995 26.1811 9.42986 26.1954 9.26253C26.3077 7.95406 26.4055 6.81402 25.9462 6.10239Z" fill="#8047F8"/>
<path fill-rule="evenodd" clip-rule="evenodd" d="M4.04668 11.2147C4.42109 16.3395 4.79142 21.4701 5.16175 26.6009L5.16197 26.604C5.36305 29.3898 5.56413 32.1757 5.76587 34.9606H6.53079C6.58291 35.3965 6.64255 35.9347 6.70543 36.5021C6.83307 37.6539 6.97409 38.9264 7.09264 39.7083H7.17725C7.95638 39.42 13.3427 37.0916 13.3451 27.8218C13.3441 27.7954 13.3449 27.7689 13.3477 27.7427H12.0169C11.9525 27.7421 11.8901 27.7203 11.8392 27.6808C11.7884 27.6413 11.7519 27.5861 11.7355 27.5238C11.6058 27.1999 11.5012 26.8664 11.4227 26.5264C10.6399 26.9736 10.0182 27.6564 9.64633 28.4775C9.29331 27.6365 9.2471 26.6983 9.51578 25.8267C9.78446 24.9551 10.3509 24.2057 11.1162 23.7093C11.1261 21.0043 12.1275 18.3968 13.931 16.3804L13.9591 16.3553C14.0115 16.3095 14.0786 16.284 14.1482 16.2834C14.1885 16.2838 14.2282 16.2925 14.2649 16.309C14.3021 16.3257 14.3354 16.35 14.3625 16.3804C16.1871 18.3996 17.1832 21.0321 17.1522 23.7531C17.9318 24.2356 18.5098 24.9845 18.779 25.8608C19.0482 26.7371 18.9902 27.6813 18.6159 28.5181C18.246 27.6957 17.6238 27.0123 16.8395 26.5671C16.7916 26.8966 16.7034 27.219 16.5768 27.527C16.533 27.6583 16.4454 27.7427 16.3579 27.7427H14.9387C14.941 27.7584 14.9426 27.7742 14.9435 27.7901L14.944 27.7937V27.8014C14.9445 27.815 14.9445 27.8287 14.9441 27.8424C14.9635 37.3783 20.6903 39.5428 21.173 39.7083H21.3381C21.3803 38.9572 21.5175 37.9208 21.6512 36.9104C21.7434 36.2142 21.834 35.5302 21.8907 34.9606H22.6644C22.9121 31.4527 23.1668 27.9546 23.4215 24.4564L23.4217 24.4545L23.4218 24.4535C23.7476 19.9789 24.0734 15.5042 24.3845 11.0087H4.09623C4.03783 11.0202 4.04181 11.1169 4.04668 11.2147ZM14.1482 16.2834L14.1467 16.2834H14.1499L14.1482 16.2834Z" fill="#8047F8"/>
<path d="M32.958 7.69821C32.958 6.43316 33.389 5.45274 34.2508 4.75696C35.1284 4.04537 36.4447 3.68958 38.1998 3.68958C39.3594 3.68958 40.3466 3.80027 41.1615 4.02165V7.29498C40.2839 7.02615 39.4142 6.89174 38.5524 6.89174C37.7062 6.89174 37.1577 6.99453 36.907 7.2001C36.6562 7.38985 36.5309 7.67449 36.5309 8.05401V16.0238C36.5309 16.7829 37.1185 17.1624 38.2938 17.1624C39.4848 17.1624 40.4641 17.0438 41.232 16.8066V20.0088C40.3858 20.246 39.3594 20.3646 38.1528 20.3646C36.3977 20.3646 35.0892 20.0167 34.2273 19.3209C33.3811 18.6251 32.958 17.6447 32.958 16.3796V7.69821Z" fill="#403937"/>
<path d="M48.0982 9.95159C48.0982 9.35069 47.7691 9.05024 47.111 9.05024C46.4528 9.05024 46.1237 9.35069 46.1237 9.95159V16.5457C46.1237 17.1466 46.4528 17.447 47.111 17.447C47.7691 17.447 48.0982 17.1466 48.0982 16.5457V9.95159ZM42.6449 9.83299C42.6449 8.63119 43.0132 7.69821 43.7497 7.03406C44.5018 6.35409 45.6223 6.01411 47.111 6.01411C48.5996 6.01411 49.7122 6.35409 50.4488 7.03406C51.2009 7.69821 51.577 8.63119 51.577 9.83299V16.6643C51.577 17.8661 51.2009 18.807 50.4488 19.4869C49.7122 20.1511 48.5996 20.4832 47.111 20.4832C45.6223 20.4832 44.5018 20.1511 43.7497 19.4869C43.0132 18.807 42.6449 17.8661 42.6449 16.6643V9.83299Z" fill="#403937"/>
<path d="M53.8616 6.08527C53.8616 3.41284 55.2563 2.07663 58.0456 2.07663C58.4061 2.07663 58.837 2.11617 59.3384 2.19523V4.94672C59.0877 4.9151 58.8527 4.89928 58.6333 4.89928C57.8341 4.89928 57.4345 5.2788 57.4345 6.03783V6.25131H59.3384V9.05024H57.4345V20.246H53.8616V9.05024H52.5218V6.25131H53.8616V6.08527Z" fill="#403937"/>
<path d="M60.794 6.08527C60.794 3.41284 62.1886 2.07663 64.9779 2.07663C65.3384 2.07663 65.7693 2.11617 66.2707 2.19523V4.94672C66.02 4.9151 65.785 4.89928 65.5656 4.89928C64.7664 4.89928 64.3668 5.2788 64.3668 6.03783V6.25131H66.2707V9.05024H64.3668V20.246H60.794V9.05024H59.4541V6.25131H60.794V6.08527Z" fill="#403937"/>
<path d="M67.0916 16.261V9.83299C67.0916 8.63119 67.4599 7.69821 68.1964 7.03406C68.9329 6.35409 70.0455 6.01411 71.5342 6.01411C74.4018 6.01411 75.8357 7.28707 75.8357 9.83299V14.6481H70.4999V15.9764C70.4999 16.4508 70.6253 16.7908 70.876 16.9964C71.1424 17.1861 71.7144 17.281 72.5919 17.281C73.4851 17.281 74.4567 17.1229 75.5066 16.8066V19.9376C74.4097 20.2381 73.2344 20.3883 71.9808 20.3883C68.7213 20.3883 67.0916 19.0125 67.0916 16.261ZM70.4999 11.9203H72.5684V9.88043C72.5684 9.27953 72.2237 8.97908 71.5342 8.97908C70.8447 8.97908 70.4999 9.27953 70.4999 9.88043V11.9203Z" fill="#403937"/>
<path d="M77.2376 16.261V9.83299C77.2376 8.63119 77.6058 7.69821 78.3423 7.03406C79.0788 6.35409 80.1914 6.01411 81.6801 6.01411C84.5478 6.01411 85.9816 7.28707 85.9816 9.83299V14.6481H80.6459V15.9764C80.6459 16.4508 80.7712 16.7908 81.022 16.9964C81.2884 17.1861 81.8603 17.281 82.7379 17.281C83.6311 17.281 84.6026 17.1229 85.6526 16.8066V19.9376C84.5556 20.2381 83.3804 20.3883 82.1267 20.3883C78.8673 20.3883 77.2376 19.0125 77.2376 16.261ZM80.6459 11.9203H82.7144V9.88043C82.7144 9.27953 82.3696 8.97908 81.6801 8.97908C80.9906 8.97908 80.6459 9.27953 80.6459 9.88043V11.9203Z" fill="#403937"/>
<path d="M38.6156 28.9797C38.6156 27.8119 38.0049 27.2281 36.7834 27.2281H34.8355V37.874H36.7834C38.0049 37.874 38.6156 37.2771 38.6156 36.0834V28.9797ZM33.4661 26.0214H36.8606C37.8892 26.0214 38.6671 26.2874 39.1942 26.8194C39.7214 27.3513 39.985 28.065 39.985 28.9602V36.1224C39.985 37.0436 39.7278 37.7702 39.2135 38.3022C38.6992 38.8341 37.9278 39.1001 36.8991 39.1001H33.4661V26.0214Z" fill="#403937"/>
<path d="M42.2385 36.2781V30.8675C42.2385 29.9463 42.4957 29.2132 43.01 28.6683C43.5371 28.1104 44.3279 27.8314 45.3822 27.8314C46.4366 27.8314 47.2145 28.1104 47.7159 28.6683C48.2302 29.2132 48.4874 29.9463 48.4874 30.8675V34.254H43.5886V36.2197C43.5886 36.8036 43.7686 37.2382 44.1286 37.5237C44.4886 37.8091 45.0479 37.9518 45.8065 37.9518C46.5651 37.9518 47.3495 37.8351 48.1595 37.6015V38.886C47.5166 39.0936 46.7516 39.1974 45.8644 39.1974C43.4471 39.1974 42.2385 38.2243 42.2385 36.2781ZM43.5886 33.1057H47.1759V30.8675C47.1759 29.6479 46.578 29.0381 45.3822 29.0381C44.1865 29.0381 43.5886 29.6479 43.5886 30.8675V33.1057Z" fill="#403937"/>
<path d="M50.8316 25.0872H52.201V39.1001H50.8316V25.0872Z" fill="#403937"/>
<path d="M55.5372 26.7804C54.9844 26.7804 54.7079 26.482 54.7079 25.8852C54.7079 25.2883 54.9844 24.9899 55.5372 24.9899C56.103 24.9899 56.3859 25.2883 56.3859 25.8852C56.3859 26.482 56.103 26.7804 55.5372 26.7804ZM54.8622 28.1039H56.2316V39.1001H54.8622V28.1039Z" fill="#403937"/>
<path d="M63.2902 28.026H64.6788L62.2487 39.1001H60.32L57.8899 28.026H59.2978L60.3586 33.1057L61.3036 38.127C61.6894 35.9732 62.3515 32.6062 63.2902 28.026Z" fill="#403937"/>
<path d="M66.1396 36.2781V30.8675C66.1396 29.9463 66.3968 29.2132 66.9111 28.6683C67.4382 28.1104 68.229 27.8314 69.2833 27.8314C70.3377 27.8314 71.1156 28.1104 71.617 28.6683C72.1313 29.2132 72.3885 29.9463 72.3885 30.8675V34.254H67.4897V36.2197C67.4897 36.8036 67.6697 37.2382 68.0297 37.5237C68.3897 37.8091 68.949 37.9518 69.7076 37.9518C70.4662 37.9518 71.2506 37.8351 72.0606 37.6015V38.886C71.4177 39.0936 70.6527 39.1974 69.7655 39.1974C67.3482 39.1974 66.1396 38.2243 66.1396 36.2781ZM67.4897 33.1057H71.077V30.8675C71.077 29.6479 70.4791 29.0381 69.2833 29.0381C68.0876 29.0381 67.4897 29.6479 67.4897 30.8675V33.1057Z" fill="#403937"/>
<path d="M78.2814 27.9676H78.7636V29.2911H78.1079C77.645 29.2911 77.2271 29.4143 76.8542 29.6609C76.7385 29.7387 76.4878 29.9139 76.1021 30.1864V39.1001H74.7327V28.026H76.0442V28.8629C76.0828 28.837 76.1792 28.7656 76.3335 28.6488C76.5006 28.5321 76.5971 28.4672 76.6228 28.4542C76.6614 28.4283 76.7449 28.3764 76.8735 28.2985C77.015 28.2207 77.1178 28.1752 77.1821 28.1623C77.2593 28.1363 77.3621 28.1039 77.4907 28.065C77.6836 28.0001 77.9471 27.9676 78.2814 27.9676Z" fill="#403937"/>
<path d="M84.6307 28.026H86L82.9913 42H81.6798L82.2777 39.1001H81.6027L79.2111 28.026H80.5998L81.7569 33.5339L82.6056 38.127C82.8627 36.596 83.1456 35.0649 83.4542 33.5339L84.6307 28.026Z" fill="#403937"/>
</g>
<defs>
<clipPath id="clip0_1_5">
<rect width="28" height="42" fill="white"/>
</clipPath>
</defs>
</svg>
